<mxfile host="app.diagrams.net" modified="2021-03-30T09:40:56.987Z" agent="5.0 (Macintosh; Intel Mac OS X 10_15_6) AppleWebKit/605.1.15 (KHTML, like Gecko) Version/14.0.2 Safari/605.1.15" etag="2pisCNCYIjSYnYoC7Ezd" version="14.5.3" type="github">
  <diagram id="cYvGPhFJQfbFmWVShduZ" name="Page-1">
    <mxGraphModel dx="2066" dy="1185" grid="1" gridSize="10" guides="1" tooltips="1" connect="1" arrows="1" fold="1" page="1" pageScale="1" pageWidth="850" pageHeight="1100" math="0" shadow="0">
      <root>
        <mxCell id="0" />
        <mxCell id="1" parent="0" />
        <mxCell id="nq5HLHAc6n0KozpufDaq-33" style="edgeStyle=orthogonalEdgeStyle;rounded=0;orthogonalLoop=1;jettySize=auto;html=1;entryX=0.5;entryY=0;entryDx=0;entryDy=0;entryPerimeter=0;" edge="1" parent="1" source="nq5HLHAc6n0KozpufDaq-15" target="nq5HLHAc6n0KozpufDaq-28">
          <mxGeometry relative="1" as="geometry" />
        </mxCell>
        <mxCell id="nq5HLHAc6n0KozpufDaq-15" value="feature SPEC" style="strokeWidth=2;html=1;shape=mxgraph.flowchart.document2;whiteSpace=wrap;size=0.25;" vertex="1" parent="1">
          <mxGeometry x="320" y="620" width="100" height="60" as="geometry" />
        </mxCell>
        <mxCell id="nq5HLHAc6n0KozpufDaq-22" style="edgeStyle=orthogonalEdgeStyle;rounded=0;orthogonalLoop=1;jettySize=auto;html=1;exitX=0.5;exitY=1;exitDx=0;exitDy=0;entryX=0;entryY=0.5;entryDx=0;entryDy=0;" edge="1" parent="1" source="nq5HLHAc6n0KozpufDaq-18" target="nq5HLHAc6n0KozpufDaq-21">
          <mxGeometry relative="1" as="geometry" />
        </mxCell>
        <mxCell id="nq5HLHAc6n0KozpufDaq-18" value="前沿技术研究" style="rounded=1;whiteSpace=wrap;html=1;absoluteArcSize=1;arcSize=14;strokeWidth=2;" vertex="1" parent="1">
          <mxGeometry x="200" y="340" width="100" height="100" as="geometry" />
        </mxCell>
        <mxCell id="nq5HLHAc6n0KozpufDaq-23" style="edgeStyle=orthogonalEdgeStyle;rounded=0;orthogonalLoop=1;jettySize=auto;html=1;exitX=0.5;exitY=1;exitDx=0;exitDy=0;entryX=0.5;entryY=0;entryDx=0;entryDy=0;" edge="1" parent="1" source="nq5HLHAc6n0KozpufDaq-19" target="nq5HLHAc6n0KozpufDaq-21">
          <mxGeometry relative="1" as="geometry" />
        </mxCell>
        <mxCell id="nq5HLHAc6n0KozpufDaq-19" value="项目需求拆解" style="rounded=1;whiteSpace=wrap;html=1;absoluteArcSize=1;arcSize=14;strokeWidth=2;" vertex="1" parent="1">
          <mxGeometry x="320" y="340" width="100" height="100" as="geometry" />
        </mxCell>
        <mxCell id="nq5HLHAc6n0KozpufDaq-24" style="edgeStyle=orthogonalEdgeStyle;rounded=0;orthogonalLoop=1;jettySize=auto;html=1;exitX=0.5;exitY=1;exitDx=0;exitDy=0;entryX=1;entryY=0.5;entryDx=0;entryDy=0;" edge="1" parent="1" source="nq5HLHAc6n0KozpufDaq-20" target="nq5HLHAc6n0KozpufDaq-21">
          <mxGeometry relative="1" as="geometry" />
        </mxCell>
        <mxCell id="nq5HLHAc6n0KozpufDaq-20" value="研发反馈迭代" style="rounded=1;whiteSpace=wrap;html=1;absoluteArcSize=1;arcSize=14;strokeWidth=2;" vertex="1" parent="1">
          <mxGeometry x="440" y="340" width="100" height="100" as="geometry" />
        </mxCell>
        <mxCell id="nq5HLHAc6n0KozpufDaq-25" style="edgeStyle=orthogonalEdgeStyle;rounded=0;orthogonalLoop=1;jettySize=auto;html=1;exitX=0.5;exitY=1;exitDx=0;exitDy=0;entryX=0.5;entryY=0;entryDx=0;entryDy=0;entryPerimeter=0;" edge="1" parent="1" source="nq5HLHAc6n0KozpufDaq-21" target="nq5HLHAc6n0KozpufDaq-15">
          <mxGeometry relative="1" as="geometry" />
        </mxCell>
        <mxCell id="nq5HLHAc6n0KozpufDaq-21" value="方案设计" style="rounded=1;whiteSpace=wrap;html=1;absoluteArcSize=1;arcSize=14;strokeWidth=2;" vertex="1" parent="1">
          <mxGeometry x="320" y="490" width="100" height="100" as="geometry" />
        </mxCell>
        <mxCell id="nq5HLHAc6n0KozpufDaq-37" value="" style="edgeStyle=orthogonalEdgeStyle;rounded=0;orthogonalLoop=1;jettySize=auto;html=1;entryX=0;entryY=0.5;entryDx=0;entryDy=0;exitX=0;exitY=0.5;exitDx=0;exitDy=0;exitPerimeter=0;" edge="1" parent="1" source="nq5HLHAc6n0KozpufDaq-28" target="nq5HLHAc6n0KozpufDaq-21">
          <mxGeometry relative="1" as="geometry">
            <Array as="points">
              <mxPoint x="250" y="770" />
              <mxPoint x="250" y="540" />
            </Array>
          </mxGeometry>
        </mxCell>
        <mxCell id="nq5HLHAc6n0KozpufDaq-38" value="未通过" style="edgeStyle=orthogonalEdgeStyle;rounded=0;orthogonalLoop=1;jettySize=auto;html=1;entryX=1;entryY=0.5;entryDx=0;entryDy=0;entryPerimeter=0;" edge="1" parent="1" source="nq5HLHAc6n0KozpufDaq-28" target="nq5HLHAc6n0KozpufDaq-39">
          <mxGeometry relative="1" as="geometry">
            <mxPoint x="190" y="770" as="targetPoint" />
          </mxGeometry>
        </mxCell>
        <mxCell id="nq5HLHAc6n0KozpufDaq-41" value="通过" style="edgeStyle=orthogonalEdgeStyle;rounded=0;orthogonalLoop=1;jettySize=auto;html=1;exitX=1;exitY=0.5;exitDx=0;exitDy=0;exitPerimeter=0;entryX=0;entryY=0.5;entryDx=0;entryDy=0;" edge="1" parent="1" source="nq5HLHAc6n0KozpufDaq-28" target="nq5HLHAc6n0KozpufDaq-43">
          <mxGeometry relative="1" as="geometry">
            <mxPoint x="480" y="770" as="targetPoint" />
          </mxGeometry>
        </mxCell>
        <mxCell id="nq5HLHAc6n0KozpufDaq-28" value="技术评审" style="strokeWidth=2;html=1;shape=mxgraph.flowchart.decision;whiteSpace=wrap;" vertex="1" parent="1">
          <mxGeometry x="320" y="720" width="100" height="100" as="geometry" />
        </mxCell>
        <mxCell id="nq5HLHAc6n0KozpufDaq-39" value="终止" style="strokeWidth=2;html=1;shape=mxgraph.flowchart.terminator;whiteSpace=wrap;" vertex="1" parent="1">
          <mxGeometry x="100" y="740" width="100" height="60" as="geometry" />
        </mxCell>
        <mxCell id="nq5HLHAc6n0KozpufDaq-50" style="edgeStyle=orthogonalEdgeStyle;rounded=0;orthogonalLoop=1;jettySize=auto;html=1;exitX=1;exitY=0.5;exitDx=0;exitDy=0;entryX=0;entryY=0.5;entryDx=0;entryDy=0;" edge="1" parent="1" source="nq5HLHAc6n0KozpufDaq-43" target="nq5HLHAc6n0KozpufDaq-48">
          <mxGeometry relative="1" as="geometry" />
        </mxCell>
        <mxCell id="nq5HLHAc6n0KozpufDaq-51" style="edgeStyle=orthogonalEdgeStyle;rounded=0;orthogonalLoop=1;jettySize=auto;html=1;exitX=1;exitY=0.5;exitDx=0;exitDy=0;entryX=0;entryY=0.5;entryDx=0;entryDy=0;" edge="1" parent="1" source="nq5HLHAc6n0KozpufDaq-43" target="nq5HLHAc6n0KozpufDaq-47">
          <mxGeometry relative="1" as="geometry" />
        </mxCell>
        <mxCell id="nq5HLHAc6n0KozpufDaq-52" style="edgeStyle=orthogonalEdgeStyle;rounded=0;orthogonalLoop=1;jettySize=auto;html=1;exitX=1;exitY=0.5;exitDx=0;exitDy=0;entryX=0;entryY=0.5;entryDx=0;entryDy=0;" edge="1" parent="1" source="nq5HLHAc6n0KozpufDaq-43" target="nq5HLHAc6n0KozpufDaq-49">
          <mxGeometry relative="1" as="geometry" />
        </mxCell>
        <mxCell id="nq5HLHAc6n0KozpufDaq-43" value="排期" style="rounded=1;whiteSpace=wrap;html=1;absoluteArcSize=1;arcSize=14;strokeWidth=2;" vertex="1" parent="1">
          <mxGeometry x="530" y="560" width="100" height="100" as="geometry" />
        </mxCell>
        <mxCell id="nq5HLHAc6n0KozpufDaq-56" style="edgeStyle=orthogonalEdgeStyle;rounded=0;orthogonalLoop=1;jettySize=auto;html=1;exitX=1;exitY=0.5;exitDx=0;exitDy=0;entryX=0.5;entryY=0;entryDx=0;entryDy=0;" edge="1" parent="1" source="nq5HLHAc6n0KozpufDaq-47" target="nq5HLHAc6n0KozpufDaq-54">
          <mxGeometry relative="1" as="geometry" />
        </mxCell>
        <mxCell id="nq5HLHAc6n0KozpufDaq-47" value="测试开发" style="rounded=1;whiteSpace=wrap;html=1;absoluteArcSize=1;arcSize=14;strokeWidth=2;" vertex="1" parent="1">
          <mxGeometry x="720" y="440" width="100" height="100" as="geometry" />
        </mxCell>
        <mxCell id="nq5HLHAc6n0KozpufDaq-55" style="edgeStyle=orthogonalEdgeStyle;rounded=0;orthogonalLoop=1;jettySize=auto;html=1;entryX=0;entryY=0.5;entryDx=0;entryDy=0;" edge="1" parent="1" source="nq5HLHAc6n0KozpufDaq-48" target="nq5HLHAc6n0KozpufDaq-54">
          <mxGeometry relative="1" as="geometry" />
        </mxCell>
        <mxCell id="nq5HLHAc6n0KozpufDaq-48" value="功能开发" style="rounded=1;whiteSpace=wrap;html=1;absoluteArcSize=1;arcSize=14;strokeWidth=2;" vertex="1" parent="1">
          <mxGeometry x="720" y="560" width="100" height="100" as="geometry" />
        </mxCell>
        <mxCell id="nq5HLHAc6n0KozpufDaq-57" style="edgeStyle=orthogonalEdgeStyle;rounded=0;orthogonalLoop=1;jettySize=auto;html=1;entryX=0.5;entryY=1;entryDx=0;entryDy=0;" edge="1" parent="1" source="nq5HLHAc6n0KozpufDaq-49" target="nq5HLHAc6n0KozpufDaq-54">
          <mxGeometry relative="1" as="geometry" />
        </mxCell>
        <mxCell id="nq5HLHAc6n0KozpufDaq-49" value="文档开发" style="rounded=1;whiteSpace=wrap;html=1;absoluteArcSize=1;arcSize=14;strokeWidth=2;" vertex="1" parent="1">
          <mxGeometry x="720" y="680" width="100" height="100" as="geometry" />
        </mxCell>
        <mxCell id="nq5HLHAc6n0KozpufDaq-53" value="验收完成" style="strokeWidth=2;html=1;shape=mxgraph.flowchart.terminator;whiteSpace=wrap;" vertex="1" parent="1">
          <mxGeometry x="990" y="580" width="100" height="60" as="geometry" />
        </mxCell>
        <mxCell id="nq5HLHAc6n0KozpufDaq-58" style="edgeStyle=orthogonalEdgeStyle;rounded=0;orthogonalLoop=1;jettySize=auto;html=1;exitX=1;exitY=0.5;exitDx=0;exitDy=0;entryX=0;entryY=0.5;entryDx=0;entryDy=0;entryPerimeter=0;" edge="1" parent="1" source="nq5HLHAc6n0KozpufDaq-54" target="nq5HLHAc6n0KozpufDaq-53">
          <mxGeometry relative="1" as="geometry" />
        </mxCell>
        <mxCell id="nq5HLHAc6n0KozpufDaq-54" value="集成" style="rounded=1;whiteSpace=wrap;html=1;absoluteArcSize=1;arcSize=14;strokeWidth=2;" vertex="1" parent="1">
          <mxGeometry x="850" y="560" width="100" height="100" as="geometry" />
        </mxCell>
      </root>
    </mxGraphModel>
  </diagram>
</mxfile>
